<?xml version="1.0" encoding="UTF-8" standalone="no"?>
<!DOCTYPE svg PUBLIC "-//W3C//DTD SVG 1.1//EN" "http://www.w3.org/Graphics/SVG/1.1/DTD/svg11.dtd">
<svg width="100%" height="100%" viewBox="0 0 250 150" version="1.1" xmlns="http://www.w3.org/2000/svg" xmlns:xlink="http://www.w3.org/1999/xlink" xml:space="preserve" xmlns:serif="http://www.serif.com/" style="fill-rule:evenodd;clip-rule:evenodd;stroke-linejoin:round;stroke-miterlimit:2;">
    <rect x="0" y="0" width="250" height="150" style="fill:none;"/>
    <g transform="matrix(0.252461,0,0,0.252461,-303.156,-421.452)">
        <g>
            <g transform="matrix(8.45886,0,0,8.45886,630.113,419.879)">
                <path d="M99.1,208.468C99.06,208.148 98.825,207.907 98.431,207.907C98.041,207.907 97.835,208.13 97.704,208.411L96.222,211.523C96.113,211.758 96.239,211.97 96.531,211.97C96.691,211.97 96.817,211.878 96.869,211.764L97.326,210.797L98.694,210.797L98.802,211.684C98.825,211.873 98.957,211.964 99.163,211.97C99.386,211.97 99.512,211.832 99.489,211.621L99.1,208.468ZM97.629,210.168L97.647,210.128L98.362,208.548C98.368,208.536 98.379,208.53 98.396,208.53C98.419,208.53 98.431,208.542 98.431,208.559L98.614,210.122L98.619,210.168L97.629,210.168Z" style="fill:rgb(229,115,0);fill-rule:nonzero;"/>
            </g>
            <g transform="matrix(8.45886,0,0,8.45886,630.113,419.879)">
                <path d="M104.921,208.948C104.921,208.199 104.332,207.93 103.669,207.93L102.999,207.93C102.501,207.93 102.152,208.205 102.066,208.702L101.614,211.284C101.603,211.33 101.597,211.375 101.597,211.421C101.597,211.781 101.872,211.947 102.198,211.947L103.354,211.947C104.149,211.947 104.801,211.541 104.801,210.688C104.801,210.339 104.63,210.047 104.332,209.864C104.727,209.676 104.921,209.372 104.921,208.948ZM103.726,208.559C103.995,208.559 104.224,208.691 104.224,208.983C104.224,209.418 103.88,209.556 103.491,209.556L102.616,209.556L102.747,208.805C102.77,208.651 102.862,208.559 103.022,208.559L103.726,208.559ZM102.301,211.318L102.501,210.19L103.468,210.19C103.817,210.19 104.109,210.282 104.109,210.677C104.109,211.164 103.749,211.318 103.314,211.318L102.301,211.318Z" style="fill:rgb(229,115,0);fill-rule:nonzero;"/>
            </g>
            <g transform="matrix(8.45886,0,0,8.45886,630.113,428.397)">
                <path d="M106.624,207.89C106.349,207.89 106.074,207.925 105.817,207.999C105.674,208.045 105.56,208.136 105.56,208.296C105.56,208.496 105.697,208.599 105.885,208.599C105.926,208.599 105.966,208.594 106.006,208.588C106.229,208.536 106.43,208.468 106.653,208.468C107.042,208.468 107.283,208.588 107.288,209.006C107.008,208.943 106.716,208.909 106.424,208.909C105.72,208.909 105.091,209.155 105.091,209.95C105.091,210.689 105.777,210.98 106.418,210.98C107.294,210.98 107.723,210.494 107.877,209.67C107.917,209.469 107.969,209.275 107.969,209.075C107.969,208.25 107.38,207.89 106.624,207.89ZM106.424,210.403C106.121,210.403 105.765,210.294 105.765,209.927C105.765,209.521 106.195,209.469 106.51,209.469C106.756,209.469 106.99,209.498 107.226,209.538C107.151,210.013 106.95,210.403 106.424,210.403Z" style="fill:rgb(229,115,0);fill-rule:nonzero;"/>
            </g>
            <g transform="matrix(8.45886,0,0,8.45886,630.113,418.373)">
                <path d="M109.282,212.148C109.459,212.148 109.602,212.022 109.602,211.839C109.602,211.558 109.322,211.581 109.322,211.295C109.322,211.244 109.328,211.192 109.334,211.146L109.849,208.262C109.849,208.239 109.854,208.216 109.854,208.193C109.854,207.993 109.7,207.907 109.517,207.907C109.339,207.907 109.214,208.01 109.174,208.188L108.67,211.055C108.653,211.129 108.647,211.204 108.647,211.289C108.647,211.61 108.779,211.879 109.036,212.068C109.111,212.119 109.191,212.148 109.282,212.148Z" style="fill:rgb(229,115,0);fill-rule:nonzero;"/>
            </g>
            <g transform="matrix(8.45886,0,0,8.45886,630.113,420.217)">
                <path d="M111.391,208.897L111.511,208.245C111.511,208.222 111.517,208.199 111.517,208.176C111.517,207.976 111.362,207.89 111.179,207.89C111.013,207.89 110.876,207.999 110.836,208.165L110.43,210.488C110.407,210.608 110.396,210.729 110.396,210.843C110.396,211.581 110.922,211.947 111.625,211.947C111.815,211.947 112.009,211.924 112.187,211.861C112.33,211.816 112.421,211.707 112.421,211.553C112.421,211.375 112.29,211.255 112.112,211.255C111.946,211.255 111.797,211.341 111.62,211.341C111.305,211.341 111.065,211.209 111.065,210.872C111.065,210.78 111.076,210.688 111.093,210.597L111.288,209.492L112.518,209.492C112.696,209.492 112.822,209.378 112.822,209.195C112.822,209.017 112.684,208.897 112.507,208.897L111.391,208.897Z" style="fill:rgb(229,115,0);fill-rule:nonzero;"/>
            </g>
            <g transform="matrix(8.45886,0,0,8.45886,630.113,428.397)">
                <path d="M114.627,207.89C113.958,207.89 113.5,208.182 113.277,208.828C113.214,209.006 113.186,209.2 113.146,209.389C113.117,209.521 113.106,209.658 113.106,209.813C113.106,210.608 113.655,210.98 114.404,210.98C115.074,210.98 115.532,210.688 115.755,210.042C115.818,209.865 115.846,209.67 115.886,209.487C115.915,209.332 115.932,209.189 115.932,209.057C115.932,208.262 115.383,207.89 114.627,207.89ZM114.41,210.374C114.021,210.374 113.786,210.197 113.786,209.79C113.786,209.681 113.791,209.595 113.809,209.487C113.883,208.983 114.015,208.496 114.627,208.496C115.017,208.496 115.252,208.679 115.252,209.086C115.252,209.178 115.24,209.275 115.223,209.384C115.131,209.887 115.023,210.374 114.41,210.374Z" style="fill:rgb(229,115,0);fill-rule:nonzero;"/>
            </g>
            <g transform="matrix(8.45886,0,0,8.45886,630.113,428.253)">
                <path d="M118.825,210.98C119.003,210.98 119.14,210.877 119.169,210.699L119.414,209.314C119.432,209.206 119.437,209.108 119.437,209.011C119.437,208.25 118.854,207.907 118.156,207.907C117.28,207.907 116.863,208.388 116.72,209.217L116.473,210.619C116.468,210.636 116.468,210.659 116.468,210.688C116.468,210.888 116.634,210.98 116.811,210.98C116.988,210.98 117.115,210.865 117.143,210.699L117.389,209.314C117.463,208.862 117.618,208.513 118.133,208.513C118.493,208.513 118.757,208.674 118.757,209.057C118.757,209.12 118.751,209.177 118.74,209.24L118.499,210.619C118.493,210.648 118.488,210.671 118.488,210.688C118.488,210.888 118.642,210.98 118.825,210.98Z" style="fill:rgb(229,115,0);fill-rule:nonzero;"/>
            </g>
            <g transform="matrix(8.45886,0,0,8.45886,630.113,419.879)">
                <path d="M123.553,207.89C122.746,207.89 122.191,208.279 121.945,209.057C121.86,209.332 121.802,209.612 121.751,209.904C121.705,210.162 121.659,210.425 121.659,210.694C121.659,211.564 122.351,211.987 123.153,211.987C123.513,211.987 123.936,211.913 124.257,211.758C124.377,211.695 124.451,211.627 124.451,211.484C124.451,211.307 124.331,211.129 124.143,211.129C124.091,211.129 124.034,211.141 123.971,211.169C123.696,211.267 123.444,211.358 123.141,211.358C122.706,211.358 122.334,211.204 122.334,210.7C122.334,210.471 122.38,210.236 122.426,210.007C122.472,209.738 122.517,209.481 122.603,209.223C122.758,208.742 123.055,208.513 123.559,208.513C123.919,208.513 124.183,208.622 124.509,208.731C124.56,208.748 124.612,208.759 124.663,208.759C124.864,208.759 124.973,208.582 124.973,208.399C124.973,208.256 124.892,208.182 124.761,208.119C124.394,207.964 123.948,207.89 123.553,207.89Z" style="fill:rgb(229,115,0);fill-rule:nonzero;"/>
            </g>
            <g transform="matrix(8.45886,0,0,8.45886,630.113,420.073)">
                <path d="M126.848,207.907C126.338,207.907 125.972,208.159 125.88,208.679L125.371,211.575C125.371,211.598 125.365,211.621 125.365,211.644C125.365,211.844 125.531,211.947 125.714,211.947C125.892,211.947 126.023,211.85 126.052,211.672L126.309,210.219L127.38,210.219C128.101,210.219 128.655,209.853 128.73,209.103C128.73,209.063 128.735,209.023 128.735,208.983C128.735,208.262 128.192,207.907 127.517,207.907L126.848,207.907ZM126.418,209.584L126.556,208.782C126.59,208.616 126.687,208.536 126.853,208.536L127.494,208.536C127.791,208.536 128.049,208.633 128.049,208.977C128.049,209.406 127.769,209.584 127.363,209.584L126.418,209.584Z" style="fill:rgb(229,115,0);fill-rule:nonzero;"/>
            </g>
            <g transform="matrix(8.45886,0,0,8.45886,630.113,419.879)">
                <path d="M132.428,207.89C131.621,207.89 131.066,208.279 130.82,209.057C130.734,209.332 130.677,209.612 130.625,209.904C130.58,210.162 130.534,210.425 130.534,210.694C130.534,211.564 131.226,211.987 132.027,211.987C132.387,211.987 132.811,211.913 133.132,211.758C133.252,211.695 133.326,211.627 133.326,211.484C133.326,211.307 133.206,211.129 133.017,211.129C132.966,211.129 132.909,211.141 132.846,211.169C132.571,211.267 132.319,211.358 132.016,211.358C131.581,211.358 131.209,211.204 131.209,210.7C131.209,210.471 131.255,210.236 131.3,210.007C131.346,209.738 131.392,209.481 131.478,209.223C131.632,208.742 131.93,208.513 132.434,208.513C132.794,208.513 133.057,208.622 133.384,208.731C133.435,208.748 133.486,208.759 133.538,208.759C133.738,208.759 133.847,208.582 133.847,208.399C133.847,208.256 133.767,208.182 133.635,208.119C133.269,207.964 132.822,207.89 132.428,207.89Z" style="fill:rgb(229,115,0);fill-rule:nonzero;"/>
            </g>
            <g transform="matrix(8.45886,0,0,8.45886,630.113,428.397)">
                <path d="M135.796,207.89C135.126,207.89 134.669,208.182 134.445,208.828C134.383,209.006 134.354,209.2 134.314,209.389C134.285,209.521 134.274,209.658 134.274,209.813C134.274,210.608 134.823,210.98 135.573,210.98C136.242,210.98 136.7,210.688 136.923,210.042C136.986,209.865 137.015,209.67 137.054,209.487C137.083,209.332 137.101,209.189 137.101,209.057C137.101,208.262 136.552,207.89 135.796,207.89ZM135.578,210.374C135.189,210.374 134.954,210.197 134.954,209.79C134.954,209.681 134.96,209.595 134.977,209.487C135.052,208.983 135.184,208.496 135.796,208.496C136.185,208.496 136.42,208.679 136.42,209.086C136.42,209.178 136.409,209.275 136.391,209.384C136.3,209.887 136.191,210.374 135.578,210.374Z" style="fill:rgb(229,115,0);fill-rule:nonzero;"/>
            </g>
            <g transform="matrix(8.45886,0,0,8.45886,630.113,428.253)">
                <path d="M140.744,207.907C140.429,207.907 140.16,208.022 139.954,208.245C139.742,208.022 139.427,207.907 139.124,207.907C138.489,207.907 138.082,208.239 137.974,208.857L137.665,210.619C137.659,210.636 137.659,210.659 137.659,210.688C137.659,210.888 137.814,210.98 137.991,210.98C138.169,210.98 138.306,210.877 138.334,210.699L138.644,208.96C138.689,208.691 138.821,208.513 139.112,208.513C139.359,208.513 139.542,208.639 139.542,208.897C139.542,208.937 139.542,208.971 139.536,208.988L139.25,210.619C139.244,210.636 139.244,210.659 139.244,210.688C139.244,210.888 139.404,210.98 139.582,210.98C139.759,210.98 139.891,210.865 139.919,210.699L140.223,209C140.269,208.725 140.4,208.513 140.704,208.513C140.938,208.513 141.133,208.645 141.133,208.897C141.133,208.92 141.127,208.948 141.121,208.988L140.835,210.619C140.835,210.642 140.83,210.665 140.83,210.688C140.83,210.888 140.996,210.98 141.179,210.98C141.344,210.98 141.476,210.865 141.505,210.699L141.808,209.005C141.813,208.942 141.819,208.897 141.819,208.834C141.819,208.227 141.31,207.907 140.744,207.907Z" style="fill:rgb(229,115,0);fill-rule:nonzero;"/>
            </g>
            <g transform="matrix(8.45886,0,0,8.45886,630.113,436.873)">
                <path d="M144.089,206.888C143.041,206.888 142.744,207.454 142.578,208.382L142.183,210.625C142.183,210.648 142.177,210.665 142.177,210.688C142.177,210.888 142.343,210.98 142.526,210.98C142.704,210.98 142.818,210.871 142.858,210.705L143.019,209.784C143.288,209.904 143.568,209.978 143.86,209.978C144.867,209.978 145.198,209.372 145.347,208.479C145.37,208.324 145.387,208.193 145.387,208.038C145.387,207.277 144.798,206.888 144.089,206.888ZM143.826,209.372C143.579,209.372 143.339,209.315 143.116,209.223L143.247,208.485C143.339,207.969 143.413,207.494 144.054,207.494C144.421,207.494 144.707,207.649 144.707,208.055C144.707,208.164 144.695,208.279 144.678,208.387C144.586,208.937 144.478,209.372 143.826,209.372Z" style="fill:rgb(229,115,0);fill-rule:nonzero;"/>
            </g>
            <g transform="matrix(8.45886,0,0,8.45886,630.113,428.397)">
                <path d="M147.445,207.89C147.17,207.89 146.895,207.925 146.637,207.999C146.494,208.045 146.38,208.136 146.38,208.296C146.38,208.496 146.517,208.599 146.706,208.599C146.746,208.599 146.786,208.594 146.826,208.588C147.05,208.536 147.25,208.468 147.474,208.468C147.863,208.468 148.103,208.588 148.109,209.006C147.829,208.943 147.537,208.909 147.245,208.909C146.541,208.909 145.911,209.155 145.911,209.95C145.911,210.689 146.597,210.98 147.239,210.98C148.115,210.98 148.543,210.494 148.698,209.67C148.738,209.469 148.789,209.275 148.789,209.075C148.789,208.25 148.201,207.89 147.445,207.89ZM147.245,210.403C146.941,210.403 146.586,210.294 146.586,209.927C146.586,209.521 147.015,209.469 147.33,209.469C147.577,209.469 147.811,209.498 148.046,209.538C147.972,210.013 147.771,210.403 147.245,210.403Z" style="fill:rgb(229,115,0);fill-rule:nonzero;"/>
            </g>
            <g transform="matrix(8.45886,0,0,8.45886,630.113,428.253)">
                <path d="M151.677,210.98C151.854,210.98 151.992,210.877 152.02,210.699L152.266,209.314C152.283,209.206 152.289,209.108 152.289,209.011C152.289,208.25 151.706,207.907 151.008,207.907C150.132,207.907 149.714,208.388 149.571,209.217L149.325,210.619C149.319,210.636 149.319,210.659 149.319,210.688C149.319,210.888 149.485,210.98 149.663,210.98C149.84,210.98 149.966,210.865 149.995,210.699L150.241,209.314C150.315,208.862 150.469,208.513 150.985,208.513C151.345,208.513 151.608,208.674 151.608,209.057C151.608,209.12 151.603,209.177 151.591,209.24L151.351,210.619C151.345,210.648 151.339,210.671 151.339,210.688C151.339,210.888 151.494,210.98 151.677,210.98Z" style="fill:rgb(229,115,0);fill-rule:nonzero;"/>
            </g>
            <g transform="matrix(8.45886,0,0,8.45886,630.113,437.067)">
                <path d="M155.474,206.888C155.319,206.888 155.211,206.945 155.148,207.054L154.163,208.891C154.158,208.897 154.146,208.903 154.14,208.903C154.118,208.903 154.106,208.897 154.106,208.88C154.043,208.611 154.003,208.399 153.963,208.256C153.946,208.17 153.929,208.102 153.912,208.039L153.654,207.123C153.614,206.991 153.528,206.888 153.328,206.888C153.094,206.888 152.985,207.026 152.985,207.18C152.985,207.197 152.99,207.226 152.996,207.266L153.511,209.137C153.574,209.361 153.683,209.475 153.815,209.544C153.494,210.122 153.334,210.316 152.956,210.333C152.733,210.339 152.636,210.471 152.636,210.631L152.636,210.659C152.653,210.814 152.762,210.957 152.985,210.957L153.002,210.957C153.786,210.939 154.083,210.476 154.444,209.795L155.771,207.323C155.8,207.272 155.817,207.214 155.817,207.163C155.817,207.008 155.708,206.888 155.474,206.888Z" style="fill:rgb(229,115,0);fill-rule:nonzero;"/>
            </g>
        </g>
        <g transform="matrix(1,0,0,1,0.000952311,0)">
            <g transform="matrix(8.45886,0,0,8.45886,630.113,61.5613)">
                <path d="M109.149,230.827C110.047,231.411 110.497,232.141 110.497,233.236C110.497,235.719 108.55,236.887 106.228,236.887L102.783,236.887C101.809,236.887 101.06,236.376 101.06,235.353C101.06,235.28 101.06,235.061 101.135,234.988L102.483,227.541C102.783,226.081 103.756,225.35 105.254,225.35L107.202,225.35C109.149,225.35 110.946,226.081 110.946,228.271C110.796,229.44 110.272,230.315 109.149,230.827ZM108.475,233.163C108.475,231.995 107.576,231.702 106.602,231.702L103.756,231.702L103.157,234.915L106.078,234.915C107.426,234.988 108.475,234.623 108.475,233.163ZM104.505,227.833L104.131,230.023L106.602,230.023C107.801,230.023 108.774,229.658 108.774,228.417C108.774,227.541 108.101,227.176 107.277,227.176L105.254,227.176C104.73,227.103 104.58,227.395 104.505,227.833Z" style="fill:rgb(229,115,0);fill-rule:nonzero;"/>
            </g>
            <g transform="matrix(8.45886,0,0,8.45886,630.113,84.4171)">
                <path d="M120.233,228.782C120.233,229.366 120.008,229.95 119.934,230.461C119.41,232.871 118.211,234.185 115.665,234.185C113.792,234.185 111.77,233.309 111.77,231.264C111.77,229 113.643,228.344 115.665,228.344C116.563,228.344 117.387,228.417 118.211,228.636C118.211,227.394 117.537,227.102 116.339,227.102C115.665,227.102 115.065,227.321 114.466,227.467L114.092,227.467C113.493,227.467 113.118,227.175 113.118,226.591C113.118,226.08 113.418,225.861 113.867,225.715C114.616,225.496 115.44,225.423 116.189,225.423C118.436,225.35 120.233,226.372 120.233,228.782ZM117.986,230.096C117.313,230.023 116.638,229.877 115.814,229.877C114.916,229.877 113.643,230.096 113.643,231.191C113.643,232.213 114.691,232.505 115.59,232.505C117.162,232.578 117.762,231.41 117.986,230.096Z" style="fill:rgb(229,115,0);fill-rule:nonzero;"/>
            </g>
            <g transform="matrix(8.45886,0,0,8.45886,630.113,58.4738)">
                <path d="M122.33,236.959C121.581,236.376 121.132,235.645 121.132,234.77C121.132,234.551 121.132,234.258 121.207,234.112L122.705,225.934C122.78,225.423 123.229,225.204 123.678,225.204C124.277,225.204 124.652,225.496 124.652,226.081L124.652,226.3L123.079,234.624L123.079,234.988C123.079,235.865 123.828,235.718 123.828,236.522C123.828,237.106 123.453,237.398 122.855,237.398C122.78,237.252 122.555,237.179 122.33,236.959Z" style="fill:rgb(229,115,0);fill-rule:nonzero;"/>
            </g>
            <g transform="matrix(8.45886,0,0,8.45886,630.113,62.7963)">
                <path d="M131.842,227.979C132.366,227.979 132.74,228.344 132.74,228.855C132.74,229.439 132.366,229.731 131.842,229.731L128.247,229.731L127.648,232.871L127.648,233.747C127.648,234.696 128.322,235.061 129.295,235.061C129.82,235.061 130.269,234.769 130.794,234.769C131.317,234.769 131.692,235.134 131.692,235.646C131.692,236.157 131.392,236.375 131.018,236.522C130.493,236.741 129.97,236.814 129.37,236.814C127.348,236.814 125.776,235.792 125.776,233.674C125.776,233.309 125.776,233.017 125.85,232.652L127.049,226.008C127.123,225.496 127.573,225.277 128.022,225.277C128.621,225.277 128.996,225.57 128.996,226.154L128.996,226.373L128.621,228.271L131.917,228.271L131.917,227.979L131.842,227.979Z" style="fill:rgb(229,115,0);fill-rule:nonzero;"/>
            </g>
            <g transform="matrix(8.45886,0,0,8.45886,630.113,83.7996)">
                <path d="M141.353,228.709C141.353,229.073 141.279,229.585 141.279,229.95C141.204,230.534 141.053,230.972 140.904,231.557C140.23,233.382 138.882,234.258 136.859,234.258C134.688,234.258 133.04,233.236 133.04,230.899C133.04,230.534 133.04,230.023 133.115,229.658C133.19,229.073 133.34,228.49 133.489,228.052C134.164,226.226 135.511,225.35 137.534,225.35C139.631,225.423 141.353,226.445 141.353,228.709ZM139.182,229.731C139.256,229.439 139.256,229.147 139.256,228.855C139.256,227.686 138.582,227.175 137.384,227.175C135.661,227.175 135.212,228.636 134.913,230.023C134.913,230.315 134.837,230.607 134.837,230.899C134.837,232.067 135.511,232.578 136.71,232.578C138.582,232.578 138.956,231.118 139.182,229.731Z" style="fill:rgb(229,115,0);fill-rule:nonzero;"/>
            </g>
            <g transform="matrix(8.45886,0,0,8.45886,630.113,82.5647)">
                <path d="M148.168,233.528L148.168,233.309L148.843,229.293C148.843,229.074 148.918,228.928 148.918,228.709C148.918,227.54 148.168,227.175 147.045,227.175C145.473,227.175 145.098,228.198 144.873,229.439L144.2,233.455C144.124,233.966 143.675,234.185 143.226,234.185C142.701,234.185 142.252,233.893 142.252,233.309L142.252,233.09L142.926,229.074C143.301,226.664 144.574,225.35 147.12,225.35C149.142,225.35 150.94,226.299 150.94,228.49C150.94,228.782 150.94,229.074 150.865,229.366L150.116,233.382C150.041,233.893 149.592,234.111 149.142,234.111C148.618,234.404 148.168,234.111 148.168,233.528Z" style="fill:rgb(229,115,0);fill-rule:nonzero;"/>
            </g>
            <g transform="matrix(8.45886,0,0,8.45886,630.113,61.5613)">
                <path d="M109.149,230.827C110.047,231.411 110.497,232.141 110.497,233.236C110.497,235.719 108.55,236.887 106.228,236.887L102.783,236.887C101.809,236.887 101.06,236.376 101.06,235.353C101.06,235.28 101.06,235.061 101.135,234.988L102.483,227.541C102.783,226.081 103.756,225.35 105.254,225.35L107.202,225.35C109.149,225.35 110.946,226.081 110.946,228.271C110.796,229.44 110.272,230.315 109.149,230.827ZM108.475,233.163C108.475,231.995 107.576,231.702 106.602,231.702L103.756,231.702L103.157,234.915L106.078,234.915C107.426,234.988 108.475,234.623 108.475,233.163ZM104.505,227.833L104.131,230.023L106.602,230.023C107.801,230.023 108.774,229.658 108.774,228.417C108.774,227.541 108.101,227.176 107.277,227.176L105.254,227.176C104.73,227.103 104.58,227.395 104.505,227.833Z" style="fill:rgb(229,115,0);fill-rule:nonzero;"/>
            </g>
            <g transform="matrix(8.45886,0,0,8.45886,630.113,84.4171)">
                <path d="M120.233,228.782C120.233,229.366 120.008,229.95 119.934,230.461C119.41,232.871 118.211,234.185 115.665,234.185C113.792,234.185 111.77,233.309 111.77,231.264C111.77,229 113.643,228.344 115.665,228.344C116.563,228.344 117.387,228.417 118.211,228.636C118.211,227.394 117.537,227.102 116.339,227.102C115.665,227.102 115.065,227.321 114.466,227.467L114.092,227.467C113.493,227.467 113.118,227.175 113.118,226.591C113.118,226.08 113.418,225.861 113.867,225.715C114.616,225.496 115.44,225.423 116.189,225.423C118.436,225.35 120.233,226.372 120.233,228.782ZM117.986,230.096C117.313,230.023 116.638,229.877 115.814,229.877C114.916,229.877 113.643,230.096 113.643,231.191C113.643,232.213 114.691,232.505 115.59,232.505C117.162,232.578 117.762,231.41 117.986,230.096Z" style="fill:rgb(229,115,0);fill-rule:nonzero;"/>
            </g>
            <g transform="matrix(8.45886,0,0,8.45886,630.113,58.4738)">
                <path d="M122.33,236.959C121.581,236.376 121.132,235.645 121.132,234.77C121.132,234.551 121.132,234.258 121.207,234.112L122.705,225.934C122.78,225.423 123.229,225.204 123.678,225.204C124.277,225.204 124.652,225.496 124.652,226.081L124.652,226.3L123.079,234.624L123.079,234.988C123.079,235.865 123.828,235.718 123.828,236.522C123.828,237.106 123.453,237.398 122.855,237.398C122.78,237.252 122.555,237.179 122.33,236.959Z" style="fill:rgb(229,115,0);fill-rule:nonzero;"/>
            </g>
            <g transform="matrix(8.45886,0,0,8.45886,630.113,62.7963)">
                <path d="M131.842,227.979C132.366,227.979 132.74,228.344 132.74,228.855C132.74,229.439 132.366,229.731 131.842,229.731L128.247,229.731L127.648,232.871L127.648,233.747C127.648,234.696 128.322,235.061 129.295,235.061C129.82,235.061 130.269,234.769 130.794,234.769C131.317,234.769 131.692,235.134 131.692,235.646C131.692,236.157 131.392,236.375 131.018,236.522C130.493,236.741 129.97,236.814 129.37,236.814C127.348,236.814 125.776,235.792 125.776,233.674C125.776,233.309 125.776,233.017 125.85,232.652L127.049,226.008C127.123,225.496 127.573,225.277 128.022,225.277C128.621,225.277 128.996,225.57 128.996,226.154L128.996,226.373L128.621,228.271L131.917,228.271L131.917,227.979L131.842,227.979Z" style="fill:rgb(229,115,0);fill-rule:nonzero;"/>
            </g>
            <g transform="matrix(8.45886,0,0,8.45886,630.113,83.7996)">
                <path d="M141.353,228.709C141.353,229.073 141.279,229.585 141.279,229.95C141.204,230.534 141.053,230.972 140.904,231.557C140.23,233.382 138.882,234.258 136.859,234.258C134.688,234.258 133.04,233.236 133.04,230.899C133.04,230.534 133.04,230.023 133.115,229.658C133.19,229.073 133.34,228.49 133.489,228.052C134.164,226.226 135.511,225.35 137.534,225.35C139.631,225.423 141.353,226.445 141.353,228.709ZM139.182,229.731C139.256,229.439 139.256,229.147 139.256,228.855C139.256,227.686 138.582,227.175 137.384,227.175C135.661,227.175 135.212,228.636 134.913,230.023C134.913,230.315 134.837,230.607 134.837,230.899C134.837,232.067 135.511,232.578 136.71,232.578C138.582,232.578 138.956,231.118 139.182,229.731Z" style="fill:rgb(229,115,0);fill-rule:nonzero;"/>
            </g>
            <g transform="matrix(8.45886,0,0,8.45886,630.113,82.5647)">
                <path d="M148.168,233.528L148.168,233.309L148.843,229.293C148.843,229.074 148.918,228.928 148.918,228.709C148.918,227.54 148.168,227.175 147.045,227.175C145.473,227.175 145.098,228.198 144.873,229.439L144.2,233.455C144.124,233.966 143.675,234.185 143.226,234.185C142.701,234.185 142.252,233.893 142.252,233.309L142.252,233.09L142.926,229.074C143.301,226.664 144.574,225.35 147.12,225.35C149.142,225.35 150.94,226.299 150.94,228.49C150.94,228.782 150.94,229.074 150.865,229.366L150.116,233.382C150.041,233.893 149.592,234.111 149.142,234.111C148.618,234.404 148.168,234.111 148.168,233.528Z" style="fill:rgb(229,115,0);fill-rule:nonzero;"/>
            </g>
        </g>
        <g transform="matrix(1,0,0,1,0.00245907,0)">
            <g transform="matrix(8.45886,0,0,8.45886,630.113,-308.869)">
                <path d="M140.829,247.193C140.123,240.261 131.384,238.832 126.01,238.832C120.527,238.832 111.843,240.261 111.191,247.193C110.974,249.204 111.137,251.215 111.462,253.226C111.843,255.237 112.385,257.301 113.254,259.154C115.316,263.969 120.799,267.197 126.065,267.197C131.33,267.197 136.812,263.969 138.875,259.101C139.635,257.248 140.287,255.184 140.666,253.173C140.883,251.215 140.992,249.204 140.829,247.193Z" style="fill:rgb(229,115,0);fill-rule:nonzero;"/>
            </g>
            <g transform="matrix(8.45886,0,0,8.45886,630.113,-307.973)">
                <path d="M125.956,266.139C120.853,266.139 115.914,262.963 114.068,258.677C113.308,256.878 112.711,254.972 112.385,252.962C112.005,250.951 111.951,249.045 112.114,247.246C112.819,240.313 122.862,239.784 125.956,239.784C129.05,239.784 139.147,240.313 139.798,247.246C140.015,249.098 139.852,250.951 139.527,252.962C139.147,254.972 138.604,256.878 137.844,258.677C136.052,262.963 131.058,266.139 125.956,266.139ZM125.956,240.102C122.971,240.102 113.145,240.631 112.494,247.193C112.277,248.992 112.439,250.845 112.765,252.856C113.145,254.814 113.688,256.719 114.448,258.518C116.239,262.752 121.016,265.768 126.01,265.768C130.896,265.768 135.781,262.752 137.572,258.518C138.332,256.719 138.93,254.814 139.201,252.856C139.581,250.898 139.635,248.992 139.472,247.193C138.767,240.578 128.942,240.102 125.956,240.102Z" style="fill:white;fill-rule:nonzero;"/>
            </g>
            <g transform="matrix(8.45886,0,0,8.45886,630.113,-217.996)">
                <path d="M134.587,246.188L134.533,246.241L134.37,246.241C134.37,246.241 134.316,246.293 134.316,246.399C134.316,246.505 134.316,246.453 134.261,246.558C134.261,246.611 134.207,246.611 134.207,246.611C134.207,246.611 134.207,246.664 134.152,246.664C134.098,246.664 134.098,246.717 134.098,246.717L134.044,246.77C134.044,246.823 133.99,246.823 133.99,246.823L133.664,246.823C133.664,246.823 133.61,246.823 133.501,246.876L133.338,246.876C133.284,246.876 133.284,246.876 133.284,246.929L133.284,247.087C133.284,247.087 133.284,247.14 133.23,247.14C133.23,247.193 133.175,247.193 133.175,247.193L133.175,247.352C133.175,247.352 133.175,247.405 133.23,247.564C133.23,247.722 133.284,247.775 133.284,247.775C133.284,247.828 133.284,247.828 133.23,247.934C133.067,248.093 133.067,248.146 133.013,248.146C133.013,248.146 133.013,248.199 132.958,248.199C132.904,248.199 132.904,248.252 132.904,248.358C132.85,248.358 132.85,248.411 132.85,248.569C132.85,248.622 132.85,248.728 132.904,248.728C132.904,248.728 132.958,248.781 132.958,248.887C132.958,248.887 132.958,248.939 132.904,249.099C132.904,249.099 132.904,249.257 132.958,249.363L133.013,249.416L133.067,249.416L133.121,249.469L133.175,249.469C133.175,249.469 133.23,249.469 133.338,249.416C133.392,249.416 133.392,249.363 133.392,249.363L133.556,249.363C133.61,249.363 133.61,249.363 133.718,249.31C133.773,249.257 133.773,249.257 133.881,249.099C133.935,248.939 133.935,248.887 133.935,248.834C133.935,248.834 133.99,248.781 134.098,248.622C134.152,248.569 134.152,248.411 134.261,248.252C134.316,248.093 134.316,248.04 134.424,247.987C134.424,247.934 134.478,247.775 134.641,247.511L134.75,247.405L134.75,247.246C134.75,247.14 134.75,247.193 134.75,247.193C134.75,247.14 134.75,247.034 134.804,247.034C134.858,246.982 134.858,246.876 134.858,246.876L134.858,246.717L134.912,246.717C134.912,246.717 134.967,246.717 134.967,246.77L134.967,246.823C135.021,246.823 135.13,246.77 135.13,246.664L135.13,246.135C135.13,246.082 135.13,245.976 135.076,245.923C135.076,245.87 135.021,245.87 135.021,245.87C135.021,245.817 134.967,245.817 134.967,245.817C134.967,245.817 134.912,245.817 134.912,245.87C134.858,245.87 134.858,245.923 134.858,245.923L134.858,246.082L134.587,246.188Z" style="fill:white;fill-rule:nonzero;"/>
            </g>
            <g transform="matrix(8.45886,0,0,8.45886,630.113,-306.628)">
                <path d="M135.076,249.68L135.076,249.521L135.021,249.469L134.967,249.469C134.967,249.469 134.912,249.469 134.804,249.521C134.858,249.521 134.804,249.574 134.804,249.574C134.587,249.627 134.533,249.627 134.533,249.627L134.207,249.627C134.207,249.627 134.152,249.627 134.044,249.68C133.99,249.733 133.99,249.733 133.881,249.733L133.718,249.733C133.718,249.733 133.664,249.733 133.556,249.786C133.501,249.786 133.392,249.839 133.338,249.839L133.284,249.839C133.284,249.839 133.23,249.839 133.23,249.786C133.175,249.733 133.067,249.733 133.067,249.627L133.013,249.627C132.958,249.627 132.958,249.627 132.958,249.574C132.958,249.521 132.958,249.521 133.013,249.521C133.067,249.521 133.067,249.469 133.067,249.469L133.067,249.416L132.904,249.257C132.85,249.257 132.741,249.204 132.741,249.204C132.741,249.204 132.741,249.151 132.687,249.151C132.687,249.151 132.687,249.098 132.632,249.098C132.578,249.098 132.578,249.045 132.47,249.045C132.415,248.992 132.415,248.992 132.415,248.886L132.307,248.886C132.307,248.886 132.253,248.886 132.253,248.833C132.253,248.833 132.253,248.78 132.198,248.78C132.144,248.78 132.144,248.728 132.036,248.728C131.981,248.728 131.873,248.675 131.873,248.675C131.818,248.622 131.818,248.622 131.818,248.516C131.818,248.41 131.818,248.357 131.764,248.304C131.764,248.251 131.71,248.146 131.601,248.039C131.547,247.987 131.439,247.881 131.33,247.828C131.276,247.775 131.167,247.616 131.167,247.458L131.167,247.246C131.167,247.193 131.167,247.087 131.113,247.034C131.113,247.034 131.113,246.981 131.058,246.981L131.058,246.928L131.004,246.875C130.95,246.875 130.95,246.822 130.95,246.822C130.896,246.77 130.787,246.664 130.787,246.664C130.787,246.611 130.733,246.611 130.733,246.505C130.733,246.399 130.733,246.452 130.733,246.452C130.57,246.293 130.516,246.187 130.462,246.081C130.298,245.87 130.244,245.817 130.244,245.711C130.19,245.711 130.19,245.658 130.19,245.658L130.19,245.605C130.19,245.553 130.136,245.553 130.136,245.446L130.136,245.341L129.919,245.129L129.919,245.023C129.864,244.97 129.864,244.97 129.864,244.864L129.864,244.812C129.864,244.812 129.919,244.812 129.919,244.864L129.919,244.917L129.973,244.917C129.973,244.917 130.027,244.917 130.027,244.97C130.027,245.023 130.081,245.129 130.19,245.182C130.244,245.235 130.353,245.235 130.353,245.235C130.353,245.235 130.407,245.235 130.407,245.182L130.407,244.653L130.298,244.335L130.298,244.282L129.81,244.282C129.81,244.282 129.756,244.282 129.756,244.229L129.702,244.229L129.647,244.282C129.647,244.335 129.593,244.335 129.647,244.335L129.647,244.441C129.647,244.441 129.593,244.441 129.593,244.388L129.593,244.335C129.593,244.282 129.538,244.282 129.538,244.176L129.484,244.176C129.484,244.176 129.43,244.176 129.321,244.229C129.267,244.282 129.159,244.282 129.104,244.282L129.05,244.282C128.996,244.282 128.996,244.282 128.996,244.229C128.942,244.229 128.833,244.176 128.778,244.176L128.236,244.176C128.236,244.124 128.181,244.018 128.073,244.018L127.801,244.018C127.801,244.018 127.747,244.018 127.747,243.965C127.747,243.912 127.313,243.965 127.313,243.965C127.313,243.965 127.259,243.912 127.15,243.912L126.987,243.912C126.879,243.912 126.77,243.912 126.716,243.965C126.553,244.018 126.499,244.124 126.499,244.176L126.499,244.388C126.499,244.494 126.499,244.547 126.444,244.547C126.282,244.812 126.227,244.812 126.173,244.812C126.119,244.812 126.119,244.812 126.01,244.759L125.956,244.706C125.956,244.706 125.901,244.653 125.793,244.653C125.739,244.653 125.63,244.6 125.63,244.6C125.467,244.6 125.359,244.6 125.359,244.547L125.305,244.494C125.305,244.441 125.25,244.335 125.25,244.335C125.25,244.282 125.196,244.282 125.087,244.282C124.979,244.282 125.033,244.282 124.924,244.229C124.924,244.229 124.87,244.176 124.762,244.176L124.327,244.176C124.273,244.176 124.273,244.124 124.164,244.124C124.11,244.124 124.11,244.071 124.11,244.071L124.11,244.018C124.11,243.965 124.056,243.965 124.056,243.965L124.056,244.018C124.056,244.018 124.056,244.071 124.002,244.071L123.947,244.071C123.893,244.071 123.893,244.018 123.893,244.018L123.947,243.965C124.002,243.912 124.002,243.912 124.11,243.912C124.164,243.859 124.273,243.753 124.273,243.7C124.273,243.7 124.273,243.647 124.219,243.647C124.219,243.647 124.164,243.594 124.164,243.488C124.164,243.488 124.164,243.435 124.219,243.33C124.273,243.277 124.273,243.277 124.273,243.171L124.219,243.171C124.219,243.171 124.164,243.171 124.164,243.224C124.056,243.065 124.056,243.118 124.056,243.118L124.056,243.065C124.056,243.012 124.056,243.012 124.002,243.012C123.947,243.012 123.947,243.065 123.839,243.065C123.785,243.065 123.785,243.118 123.676,243.118L123.513,243.118C123.405,243.118 123.459,243.118 123.459,243.118L123.188,243.118C123.188,243.118 123.133,243.171 122.916,243.171C122.916,243.171 122.862,243.171 122.862,243.118C122.807,243.118 122.807,243.065 122.699,243.065L122.156,243.065C122.102,243.065 121.939,243.065 121.885,243.118C121.885,243.118 121.83,243.118 121.722,243.171C121.668,243.171 121.668,243.224 121.668,243.224L121.613,243.224L121.613,243.277L121.559,243.277C121.505,243.277 121.505,243.33 121.505,243.33L121.451,243.383C121.396,243.383 121.396,243.435 121.287,243.435C121.287,243.435 121.233,243.435 121.233,243.383C121.179,243.383 121.179,243.33 121.179,243.33L120.745,243.33L120.582,243.171C120.527,243.171 120.419,243.224 120.365,243.383C120.31,243.435 120.31,243.541 120.202,243.594C120.148,243.647 120.039,243.753 119.985,243.753C119.822,243.806 119.768,243.806 119.713,243.912C119.713,243.912 119.659,243.912 119.551,243.965C119.496,243.965 119.496,244.018 119.496,244.018C119.496,244.018 119.496,244.071 119.442,244.176C119.442,244.229 119.388,244.229 119.388,244.335C119.334,244.388 119.334,244.494 119.334,244.547C119.334,244.706 119.279,244.759 119.279,244.812C119.225,244.97 119.116,245.023 119.062,245.023L119.008,245.076L118.845,245.129C118.791,245.129 118.682,245.182 118.682,245.182L118.465,245.182C118.41,245.182 118.41,245.182 118.302,245.235C118.302,245.235 118.248,245.288 118.248,245.393C118.193,245.553 118.085,245.605 118.031,245.605C117.976,245.605 117.868,245.658 117.868,245.658L117.868,245.764L117.814,245.817C117.814,245.87 117.759,245.976 117.65,246.081L117.379,246.346C117.379,246.346 117.325,246.399 117.325,246.505C117.325,246.558 117.271,246.558 117.271,246.664C117.271,246.77 117.216,246.822 117.216,246.822C117.054,246.875 117.054,246.981 117.054,247.193C117.054,247.246 117.054,247.352 117.108,247.405L117.162,247.405L117.162,247.511C117.162,247.511 117.162,247.563 117.108,247.669C117.108,247.722 117.054,247.722 117.054,247.722L117.054,248.199C116.999,248.357 116.999,248.41 116.89,248.463C116.89,248.516 116.89,248.622 116.836,248.675C116.836,248.675 116.782,248.728 116.673,248.833C116.619,248.886 116.619,248.992 116.619,248.992C116.619,248.992 116.619,249.045 116.673,249.151L116.673,249.257L116.728,249.257L116.728,249.31L116.673,249.363L116.673,249.469C116.673,249.521 116.673,249.521 116.728,249.627C116.728,249.68 116.782,249.786 116.89,249.839C116.945,249.892 117.054,249.998 117.054,249.998C117.108,250.051 117.108,250.051 117.108,250.157L117.162,250.157C117.162,250.209 117.162,250.315 117.216,250.368C117.216,250.368 117.271,250.421 117.379,250.421C117.379,250.421 117.379,250.474 117.433,250.474L117.433,250.527L117.488,250.58L117.488,250.845C117.488,250.845 117.542,250.898 117.65,251.056C117.705,251.056 117.814,251.109 117.868,251.215L118.085,251.426C118.139,251.479 118.248,251.585 118.302,251.585C118.356,251.585 118.465,251.639 118.519,251.744C118.574,251.797 118.682,251.903 118.682,251.956C118.736,252.009 118.899,252.115 119.116,252.167C119.116,252.167 119.279,252.115 119.551,252.009C119.605,252.009 119.713,252.009 119.768,251.956L120.419,251.956C120.419,251.956 120.473,251.956 120.582,252.009C120.636,252.009 120.745,252.062 120.745,252.062L120.799,252.062C120.853,252.062 120.962,252.009 121.016,251.903C121.07,251.903 121.179,251.85 121.179,251.85C121.233,251.85 121.233,251.797 121.396,251.797C121.451,251.797 121.559,251.797 121.559,251.744C121.559,251.744 121.613,251.744 121.613,251.691C121.613,251.691 121.668,251.691 121.668,251.639L122.428,251.639C122.482,251.639 122.645,251.639 122.645,251.691C122.699,251.691 122.699,251.744 122.807,251.903C122.862,251.956 122.862,252.062 122.971,252.115C123.025,252.167 123.133,252.167 123.188,252.167C123.242,252.167 123.405,252.167 123.459,252.115L123.622,252.115C123.622,252.115 123.676,252.115 123.676,252.062L123.676,252.009L123.73,252.009C123.785,252.009 123.785,252.062 123.785,252.062C123.785,252.062 123.785,252.115 123.839,252.115C123.513,252.009 123.513,252.115 123.513,252.115L123.513,252.062L123.567,252.062C123.567,252.062 123.622,252.062 123.622,252.115L123.622,252.167L123.567,252.167C123.567,252.22 123.622,252.326 123.622,252.326L123.622,252.697C123.622,252.75 123.622,252.75 123.567,252.856C123.567,252.856 123.567,252.908 123.513,252.908L123.513,253.014C123.513,253.067 123.459,253.173 123.459,253.279C123.459,253.332 123.405,253.438 123.296,253.438L123.296,253.544C123.35,253.755 123.513,253.914 123.567,253.967C123.622,254.125 123.785,254.178 123.839,254.231C123.893,254.231 123.893,254.285 124.002,254.39C124.056,254.443 124.056,254.549 124.164,254.549C124.164,254.549 124.164,254.602 124.219,254.602C124.273,254.655 124.273,254.813 124.273,254.866C124.273,254.919 124.327,255.025 124.436,255.131C124.49,255.343 124.599,255.502 124.599,255.554L124.599,255.925C124.599,255.925 124.599,255.978 124.653,256.084C124.707,256.243 124.707,256.295 124.707,256.454L124.707,256.613C124.653,256.666 124.653,256.666 124.653,256.771C124.599,256.824 124.599,256.824 124.49,256.824C124.49,256.824 124.436,256.877 124.436,256.983C124.436,257.036 124.381,257.195 124.381,257.248C124.381,257.301 124.381,257.407 124.327,257.46L124.273,257.512C124.273,257.565 124.219,257.565 124.219,257.671L124.219,258.253C124.219,258.306 124.273,258.412 124.381,258.518C124.381,258.518 124.436,258.571 124.436,258.677C124.49,258.73 124.49,258.73 124.49,258.836C124.49,258.889 124.545,258.994 124.653,259.1C124.707,259.153 124.707,259.259 124.87,259.312C124.924,259.365 125.033,259.523 125.033,259.523L125.033,260.053C125.033,260.053 125.033,260.106 125.087,260.106C125.087,260.317 125.087,260.476 125.141,260.635C125.196,260.794 125.305,260.847 125.359,261.005C125.413,261.058 125.413,261.164 125.522,261.217L125.576,261.27C125.63,261.323 125.739,261.482 125.739,261.64C125.739,261.64 125.793,261.693 125.901,261.905C125.956,262.064 126.065,262.116 126.065,262.17C126.065,262.17 126.065,262.223 126.01,262.223L125.956,262.276L125.901,262.276C125.901,262.328 125.956,262.434 126.119,262.54C126.282,262.646 126.336,262.752 126.499,262.752C126.553,262.752 126.553,262.752 126.661,262.699C126.716,262.699 126.716,262.646 126.879,262.646L127.042,262.646C127.042,262.646 127.096,262.646 127.096,262.593C127.15,262.593 127.15,262.54 127.259,262.54L128.018,262.54L127.856,262.54L128.018,262.54C128.073,262.54 128.181,262.487 128.236,262.487C128.453,262.328 128.616,262.276 128.724,262.116C128.887,261.958 128.996,261.852 129.104,261.693C129.159,261.535 129.267,261.482 129.267,261.482C129.321,261.429 129.43,261.323 129.484,261.27C129.538,261.217 129.647,261.217 129.647,261.111C129.647,261.058 129.702,261.058 129.702,260.952L129.81,260.847L129.81,260.264C129.81,260.211 129.864,260.106 129.973,260.053C129.973,260.053 130.027,260.053 130.136,260C130.19,260 130.19,260 130.298,259.947C130.298,259.947 130.353,259.947 130.462,259.894C130.516,259.894 130.624,259.841 130.624,259.841C130.679,259.788 130.787,259.682 130.787,259.63C130.841,259.47 130.841,259.365 130.841,259.259C130.841,259.206 130.841,259.047 130.787,258.994L130.787,258.836C130.787,258.73 130.787,258.783 130.787,258.783L130.57,258.73L130.57,258.518C130.57,258.465 130.57,258.465 130.624,258.465L130.733,258.465C130.733,258.412 130.733,258.412 130.787,258.412C130.787,258.412 130.841,258.359 130.95,258.359C131.004,258.306 131.113,258.306 131.167,258.2C131.33,258.042 131.439,257.936 131.601,257.83C131.981,257.671 132.253,257.565 132.361,257.301L132.361,255.819C132.361,255.819 132.361,255.766 132.307,255.766C132.307,255.766 132.253,255.766 132.144,255.713C132.09,255.713 132.09,255.66 132.09,255.554L132.09,255.343C132.09,255.343 132.09,255.29 132.036,255.29L132.036,254.708C132.036,254.655 132.036,254.549 131.981,254.549C131.927,254.496 131.927,254.39 131.927,254.337L131.927,254.178C131.927,254.178 131.981,254.125 131.981,254.02L131.981,253.914C132.036,253.914 132.036,253.861 132.036,253.861C132.09,253.808 132.198,253.649 132.198,253.596C132.198,253.544 132.198,253.438 132.253,253.385C132.253,253.385 132.307,253.385 132.307,253.332L132.361,253.332C132.361,253.332 132.415,253.279 132.415,253.173L132.524,253.067L132.524,253.014C132.578,252.856 132.687,252.803 132.741,252.644C132.796,252.485 132.958,252.432 133.013,252.379L133.23,252.167C133.23,252.167 133.284,252.115 133.392,252.115C133.447,252.062 133.556,252.062 133.556,252.062C133.61,252.009 133.773,251.85 133.99,251.691C134.044,251.639 134.207,251.426 134.37,251.215C134.37,251.162 134.424,251.056 134.533,251.003C134.587,250.845 134.587,250.792 134.695,250.739C134.695,250.686 134.75,250.58 134.858,250.474C134.858,250.474 134.858,250.421 134.912,250.315C134.912,250.315 134.967,250.262 134.967,250.157C134.967,250.104 135.021,250.104 135.021,249.998L135.021,249.416C135.076,249.733 135.076,249.68 135.076,249.68Z" style="fill:white;fill-rule:nonzero;"/>
            </g>
            <g transform="matrix(8.45886,0,0,8.45886,630.113,-308.869)">
                <path d="M140.829,247.193C140.123,240.261 131.384,238.832 126.01,238.832C120.527,238.832 111.843,240.261 111.191,247.193C110.974,249.204 111.137,251.215 111.462,253.226C111.843,255.237 112.385,257.301 113.254,259.154C115.316,263.969 120.799,267.197 126.065,267.197C131.33,267.197 136.812,263.969 138.875,259.101C139.635,257.248 140.287,255.184 140.666,253.173C140.883,251.215 140.992,249.204 140.829,247.193Z" style="fill:rgb(229,115,0);fill-rule:nonzero;"/>
            </g>
            <g transform="matrix(8.45886,0,0,8.45886,630.113,-307.973)">
                <path d="M125.956,266.139C120.853,266.139 115.914,262.963 114.068,258.677C113.308,256.878 112.711,254.972 112.385,252.962C112.005,250.951 111.951,249.045 112.114,247.246C112.819,240.313 122.862,239.784 125.956,239.784C129.05,239.784 139.147,240.313 139.798,247.246C140.015,249.098 139.852,250.951 139.527,252.962C139.147,254.972 138.604,256.878 137.844,258.677C136.052,262.963 131.058,266.139 125.956,266.139ZM125.956,240.102C122.971,240.102 113.145,240.631 112.494,247.193C112.277,248.992 112.439,250.845 112.765,252.856C113.145,254.814 113.688,256.719 114.448,258.518C116.239,262.752 121.016,265.768 126.01,265.768C130.896,265.768 135.781,262.752 137.572,258.518C138.332,256.719 138.93,254.814 139.201,252.856C139.581,250.898 139.635,248.992 139.472,247.193C138.767,240.578 128.942,240.102 125.956,240.102Z" style="fill:white;fill-rule:nonzero;"/>
            </g>
            <g transform="matrix(8.45886,0,0,8.45886,630.113,-217.996)">
                <path d="M134.587,246.188L134.533,246.241L134.37,246.241C134.37,246.241 134.316,246.293 134.316,246.399C134.316,246.505 134.316,246.453 134.261,246.558C134.261,246.611 134.207,246.611 134.207,246.611C134.207,246.611 134.207,246.664 134.152,246.664C134.098,246.664 134.098,246.717 134.098,246.717L134.044,246.77C134.044,246.823 133.99,246.823 133.99,246.823L133.664,246.823C133.664,246.823 133.61,246.823 133.501,246.876L133.338,246.876C133.284,246.876 133.284,246.876 133.284,246.929L133.284,247.087C133.284,247.087 133.284,247.14 133.23,247.14C133.23,247.193 133.175,247.193 133.175,247.193L133.175,247.352C133.175,247.352 133.175,247.405 133.23,247.564C133.23,247.722 133.284,247.775 133.284,247.775C133.284,247.828 133.284,247.828 133.23,247.934C133.067,248.093 133.067,248.146 133.013,248.146C133.013,248.146 133.013,248.199 132.958,248.199C132.904,248.199 132.904,248.252 132.904,248.358C132.85,248.358 132.85,248.411 132.85,248.569C132.85,248.622 132.85,248.728 132.904,248.728C132.904,248.728 132.958,248.781 132.958,248.887C132.958,248.887 132.958,248.939 132.904,249.099C132.904,249.099 132.904,249.257 132.958,249.363L133.013,249.416L133.067,249.416L133.121,249.469L133.175,249.469C133.175,249.469 133.23,249.469 133.338,249.416C133.392,249.416 133.392,249.363 133.392,249.363L133.556,249.363C133.61,249.363 133.61,249.363 133.718,249.31C133.773,249.257 133.773,249.257 133.881,249.099C133.935,248.939 133.935,248.887 133.935,248.834C133.935,248.834 133.99,248.781 134.098,248.622C134.152,248.569 134.152,248.411 134.261,248.252C134.316,248.093 134.316,248.04 134.424,247.987C134.424,247.934 134.478,247.775 134.641,247.511L134.75,247.405L134.75,247.246C134.75,247.14 134.75,247.193 134.75,247.193C134.75,247.14 134.75,247.034 134.804,247.034C134.858,246.982 134.858,246.876 134.858,246.876L134.858,246.717L134.912,246.717C134.912,246.717 134.967,246.717 134.967,246.77L134.967,246.823C135.021,246.823 135.13,246.77 135.13,246.664L135.13,246.135C135.13,246.082 135.13,245.976 135.076,245.923C135.076,245.87 135.021,245.87 135.021,245.87C135.021,245.817 134.967,245.817 134.967,245.817C134.967,245.817 134.912,245.817 134.912,245.87C134.858,245.87 134.858,245.923 134.858,245.923L134.858,246.082L134.587,246.188Z" style="fill:white;fill-rule:nonzero;"/>
            </g>
            <g transform="matrix(8.45886,0,0,8.45886,630.113,-308.869)">
                <path d="M135.044,249.813L135.044,249.654L134.99,249.601L134.935,249.601C134.935,249.601 134.881,249.601 134.772,249.654C134.826,249.654 134.772,249.707 134.772,249.707C134.555,249.76 134.501,249.76 134.501,249.76L134.175,249.76C134.175,249.76 134.121,249.76 134.012,249.813C133.958,249.866 133.958,249.866 133.85,249.866L133.687,249.866C133.687,249.866 133.633,249.866 133.524,249.919C133.47,249.919 133.361,249.972 133.307,249.972L133.252,249.972C133.252,249.972 133.198,249.972 133.198,249.919C133.144,249.866 133.035,249.866 133.035,249.76L132.981,249.76C132.927,249.76 132.927,249.76 132.927,249.707C132.927,249.654 132.927,249.654 132.981,249.654C133.035,249.654 133.035,249.601 133.035,249.601L133.035,249.548L132.873,249.39C132.818,249.39 132.71,249.337 132.71,249.337C132.71,249.337 132.71,249.284 132.656,249.284C132.656,249.284 132.656,249.231 132.601,249.231C132.547,249.231 132.547,249.178 132.438,249.178C132.384,249.125 132.384,249.125 132.384,249.019L132.275,249.019C132.275,249.019 132.221,249.019 132.221,248.966C132.221,248.966 132.221,248.913 132.167,248.913C132.113,248.913 132.113,248.86 132.004,248.86C131.95,248.86 131.841,248.807 131.841,248.807C131.787,248.755 131.787,248.755 131.787,248.649C131.787,248.543 131.787,248.49 131.732,248.437C131.732,248.384 131.678,248.278 131.57,248.172C131.515,248.119 131.407,248.014 131.298,247.961C131.244,247.908 131.135,247.749 131.135,247.59L131.135,247.379C131.135,247.325 131.135,247.22 131.081,247.167C131.081,247.167 131.081,247.114 131.027,247.114L131.027,247.061L130.972,247.008C130.918,247.008 130.918,246.955 130.918,246.955C130.864,246.902 130.755,246.797 130.755,246.797C130.755,246.744 130.701,246.744 130.701,246.638C130.701,246.532 130.701,246.585 130.701,246.585C130.538,246.426 130.484,246.32 130.43,246.214C130.267,246.003 130.213,245.95 130.213,245.844C130.158,245.844 130.158,245.791 130.158,245.791L130.158,245.738C130.158,245.685 130.104,245.685 130.104,245.579L130.104,245.473L129.887,245.262L129.887,245.156C129.833,245.103 129.833,245.103 129.833,244.997L129.833,244.944C129.833,244.944 129.887,244.944 129.887,244.997L129.887,245.05L129.941,245.05C129.941,245.05 129.996,245.05 129.996,245.103C129.996,245.156 130.05,245.262 130.158,245.315C130.213,245.368 130.321,245.368 130.321,245.368C130.321,245.368 130.375,245.368 130.375,245.315L130.375,244.786L130.267,244.468L130.267,244.415L129.779,244.415C129.779,244.415 129.724,244.415 129.724,244.362L129.67,244.362L129.615,244.415C129.615,244.468 129.561,244.468 129.615,244.468L129.615,244.574C129.615,244.574 129.561,244.574 129.561,244.521L129.561,244.468C129.561,244.415 129.507,244.415 129.507,244.309L129.453,244.309C129.453,244.309 129.398,244.309 129.29,244.362C129.236,244.415 129.127,244.415 129.073,244.415L129.019,244.415C128.964,244.415 128.964,244.415 128.964,244.362C128.91,244.362 128.801,244.309 128.747,244.309L128.204,244.309C128.204,244.256 128.15,244.151 128.041,244.151L127.77,244.151C127.77,244.151 127.716,244.151 127.716,244.098C127.716,244.045 127.281,244.098 127.281,244.098C127.281,244.098 127.227,244.045 127.118,244.045L126.956,244.045C126.847,244.045 126.739,244.045 126.684,244.098C126.521,244.151 126.467,244.256 126.467,244.309L126.467,244.521C126.467,244.627 126.467,244.679 126.413,244.679C126.25,244.944 126.196,244.944 126.142,244.944C126.087,244.944 126.087,244.944 125.979,244.891L125.925,244.839C125.925,244.839 125.87,244.786 125.761,244.786C125.707,244.786 125.599,244.733 125.599,244.733C125.436,244.733 125.327,244.733 125.327,244.679L125.273,244.627C125.273,244.574 125.219,244.468 125.219,244.468C125.219,244.415 125.165,244.415 125.056,244.415C124.947,244.415 125.001,244.415 124.893,244.362C124.893,244.362 124.839,244.309 124.73,244.309L124.296,244.309C124.241,244.309 124.241,244.256 124.133,244.256C124.079,244.256 124.079,244.203 124.079,244.203L124.079,244.151C124.079,244.098 124.024,244.098 124.024,244.098L124.024,244.151C124.024,244.151 124.024,244.203 123.97,244.203L123.916,244.203C123.862,244.203 123.862,244.151 123.862,244.151L123.916,244.098C123.97,244.045 123.97,244.045 124.079,244.045C124.133,243.992 124.241,243.886 124.241,243.833C124.241,243.833 124.241,243.78 124.187,243.78C124.187,243.78 124.133,243.727 124.133,243.621C124.133,243.621 124.133,243.568 124.187,243.462C124.241,243.41 124.241,243.41 124.241,243.304L124.187,243.304C124.187,243.304 124.133,243.304 124.133,243.357C124.024,243.198 124.024,243.251 124.024,243.251L124.024,243.198C124.024,243.145 124.024,243.145 123.97,243.145C123.916,243.145 123.916,243.198 123.807,243.198C123.753,243.198 123.753,243.251 123.644,243.251L123.481,243.251C123.373,243.251 123.427,243.251 123.427,243.251L123.156,243.251C123.156,243.251 123.102,243.304 122.884,243.304C122.884,243.304 122.83,243.304 122.83,243.251C122.776,243.251 122.776,243.198 122.667,243.198L122.124,243.198C122.07,243.198 121.907,243.198 121.853,243.251C121.853,243.251 121.799,243.251 121.69,243.304C121.636,243.304 121.636,243.357 121.636,243.357L121.582,243.357L121.582,243.41L121.528,243.41C121.473,243.41 121.473,243.462 121.473,243.462L121.419,243.515C121.364,243.515 121.364,243.568 121.256,243.568C121.256,243.568 121.202,243.568 121.202,243.515C121.147,243.515 121.147,243.462 121.147,243.462L120.713,243.462L120.55,243.304C120.496,243.304 120.387,243.357 120.333,243.515C120.279,243.568 120.279,243.674 120.17,243.727C120.116,243.78 120.008,243.886 119.953,243.886C119.79,243.939 119.736,243.939 119.682,244.045C119.682,244.045 119.627,244.045 119.519,244.098C119.465,244.098 119.465,244.151 119.465,244.151C119.465,244.151 119.465,244.203 119.41,244.309C119.41,244.362 119.356,244.362 119.356,244.468C119.302,244.521 119.302,244.627 119.302,244.679C119.302,244.839 119.248,244.891 119.248,244.944C119.193,245.103 119.085,245.156 119.03,245.156L118.976,245.209L118.813,245.262C118.759,245.262 118.651,245.315 118.651,245.315L118.434,245.315C118.379,245.315 118.379,245.315 118.27,245.368C118.27,245.368 118.216,245.42 118.216,245.526C118.162,245.685 118.053,245.738 117.999,245.738C117.945,245.738 117.836,245.791 117.836,245.791L117.836,245.897L117.782,245.95C117.782,246.003 117.728,246.108 117.619,246.214L117.348,246.479C117.348,246.479 117.293,246.532 117.293,246.638C117.293,246.691 117.239,246.691 117.239,246.797C117.239,246.902 117.185,246.955 117.185,246.955C117.022,247.008 117.022,247.114 117.022,247.325C117.022,247.379 117.022,247.485 117.076,247.538L117.131,247.538L117.131,247.643C117.131,247.643 117.131,247.696 117.076,247.802C117.076,247.855 117.022,247.855 117.022,247.855L117.022,248.331C116.968,248.49 116.968,248.543 116.859,248.596C116.859,248.649 116.859,248.755 116.805,248.807C116.805,248.807 116.75,248.86 116.642,248.966C116.588,249.019 116.588,249.125 116.588,249.125C116.588,249.125 116.588,249.178 116.642,249.284L116.642,249.39L116.696,249.39L116.696,249.443L116.642,249.495L116.642,249.601C116.642,249.654 116.642,249.654 116.696,249.76C116.696,249.813 116.75,249.919 116.859,249.972C116.913,250.025 117.022,250.131 117.022,250.131C117.076,250.184 117.076,250.184 117.076,250.289L117.131,250.289C117.131,250.342 117.131,250.448 117.185,250.501C117.185,250.501 117.239,250.554 117.348,250.554C117.348,250.554 117.348,250.607 117.402,250.607L117.402,250.66L117.456,250.712L117.456,250.977C117.456,250.977 117.51,251.03 117.619,251.189C117.673,251.189 117.782,251.242 117.836,251.348L118.053,251.559C118.108,251.612 118.216,251.718 118.27,251.718C118.325,251.718 118.434,251.771 118.488,251.877C118.542,251.93 118.651,252.036 118.651,252.089C118.705,252.142 118.868,252.247 119.085,252.3C119.085,252.3 119.248,252.247 119.519,252.142C119.573,252.142 119.682,252.142 119.736,252.089L120.387,252.089C120.387,252.089 120.442,252.089 120.55,252.142C120.604,252.142 120.713,252.194 120.713,252.194L120.768,252.194C120.822,252.194 120.93,252.142 120.985,252.036C121.039,252.036 121.147,251.983 121.147,251.983C121.202,251.983 121.202,251.93 121.364,251.93C121.419,251.93 121.528,251.93 121.528,251.877C121.528,251.877 121.582,251.877 121.582,251.824C121.582,251.824 121.636,251.824 121.636,251.771L122.396,251.771C122.45,251.771 122.613,251.771 122.613,251.824C122.667,251.824 122.667,251.877 122.776,252.036C122.83,252.089 122.83,252.194 122.939,252.247C122.993,252.3 123.102,252.3 123.156,252.3C123.21,252.3 123.373,252.3 123.427,252.247L123.59,252.247C123.59,252.247 123.644,252.247 123.644,252.194L123.644,252.142L123.699,252.142C123.753,252.142 123.753,252.194 123.753,252.194C123.753,252.194 123.753,252.247 123.807,252.247C123.481,252.142 123.481,252.247 123.481,252.247L123.481,252.194L123.536,252.194C123.536,252.194 123.59,252.194 123.59,252.247L123.59,252.3L123.536,252.3C123.536,252.353 123.59,252.459 123.59,252.459L123.59,252.83C123.59,252.882 123.59,252.882 123.536,252.988C123.536,252.988 123.536,253.041 123.481,253.041L123.481,253.147C123.481,253.2 123.427,253.306 123.427,253.411C123.427,253.464 123.373,253.571 123.264,253.571L123.264,253.676C123.319,253.888 123.481,254.047 123.536,254.099C123.59,254.258 123.753,254.311 123.807,254.364C123.862,254.364 123.862,254.417 123.97,254.523C124.024,254.576 124.024,254.682 124.133,254.682C124.133,254.682 124.133,254.735 124.187,254.735C124.241,254.788 124.241,254.946 124.241,254.999C124.241,255.052 124.296,255.158 124.404,255.264C124.459,255.476 124.567,255.634 124.567,255.687L124.567,256.057C124.567,256.057 124.567,256.11 124.622,256.217C124.676,256.375 124.676,256.428 124.676,256.587L124.676,256.746C124.622,256.798 124.622,256.798 124.622,256.904C124.567,256.957 124.567,256.957 124.459,256.957C124.459,256.957 124.404,257.01 124.404,257.116C124.404,257.169 124.35,257.328 124.35,257.381C124.35,257.434 124.35,257.539 124.296,257.592L124.241,257.645C124.241,257.698 124.187,257.698 124.187,257.804L124.187,258.386C124.187,258.439 124.241,258.545 124.35,258.651C124.35,258.651 124.404,258.704 124.404,258.81C124.459,258.863 124.459,258.863 124.459,258.968C124.459,259.021 124.513,259.127 124.622,259.233C124.676,259.286 124.676,259.392 124.839,259.444C124.893,259.497 125.001,259.656 125.001,259.656L125.001,260.185C125.001,260.185 125.001,260.238 125.056,260.238C125.056,260.45 125.056,260.609 125.11,260.768C125.165,260.926 125.273,260.979 125.327,261.138C125.382,261.191 125.382,261.297 125.49,261.35L125.544,261.402C125.599,261.456 125.707,261.614 125.707,261.773C125.707,261.773 125.761,261.826 125.87,262.038C125.925,262.196 126.033,262.249 126.033,262.303C126.033,262.303 126.033,262.355 125.979,262.355L125.925,262.408L125.87,262.408C125.87,262.461 125.925,262.567 126.087,262.673C126.25,262.779 126.304,262.884 126.467,262.884C126.521,262.884 126.521,262.884 126.63,262.831C126.684,262.831 126.684,262.779 126.847,262.779L127.01,262.779C127.01,262.779 127.064,262.779 127.064,262.726C127.118,262.726 127.118,262.673 127.227,262.673L127.987,262.673L127.824,262.673L127.987,262.673C128.041,262.673 128.15,262.62 128.204,262.62C128.421,262.461 128.584,262.408 128.693,262.249C128.855,262.091 128.964,261.985 129.073,261.826C129.127,261.667 129.236,261.614 129.236,261.614C129.29,261.562 129.398,261.456 129.453,261.402C129.507,261.35 129.615,261.35 129.615,261.244C129.615,261.191 129.67,261.191 129.67,261.085L129.779,260.979L129.779,260.397C129.779,260.344 129.833,260.238 129.941,260.185C129.941,260.185 129.996,260.185 130.104,260.133C130.158,260.133 130.158,260.133 130.267,260.08C130.267,260.08 130.321,260.08 130.43,260.027C130.484,260.027 130.593,259.974 130.593,259.974C130.647,259.921 130.755,259.815 130.755,259.762C130.81,259.603 130.81,259.497 130.81,259.392C130.81,259.339 130.81,259.18 130.755,259.127L130.755,258.968C130.755,258.863 130.755,258.916 130.755,258.916L130.538,258.863L130.538,258.651C130.538,258.598 130.538,258.598 130.593,258.598L130.701,258.598C130.701,258.545 130.701,258.545 130.755,258.545C130.755,258.545 130.81,258.492 130.918,258.492C130.972,258.439 131.081,258.439 131.135,258.333C131.298,258.175 131.407,258.069 131.57,257.963C131.95,257.804 132.221,257.698 132.33,257.434L132.33,255.952C132.33,255.952 132.33,255.899 132.275,255.899C132.275,255.899 132.221,255.899 132.113,255.846C132.058,255.846 132.058,255.793 132.058,255.687L132.058,255.476C132.058,255.476 132.058,255.423 132.004,255.423L132.004,254.84C132.004,254.788 132.004,254.682 131.95,254.682C131.895,254.629 131.895,254.523 131.895,254.47L131.895,254.311C131.895,254.311 131.95,254.258 131.95,254.152L131.95,254.047C132.004,254.047 132.004,253.994 132.004,253.994C132.058,253.941 132.167,253.782 132.167,253.729C132.167,253.676 132.167,253.571 132.221,253.518C132.221,253.518 132.275,253.518 132.275,253.464L132.33,253.464C132.33,253.464 132.384,253.411 132.384,253.306L132.492,253.2L132.492,253.147C132.547,252.988 132.656,252.935 132.71,252.777C132.764,252.618 132.927,252.565 132.981,252.512L133.198,252.3C133.198,252.3 133.252,252.247 133.361,252.247C133.416,252.194 133.524,252.194 133.524,252.194C133.578,252.142 133.741,251.983 133.958,251.824C134.012,251.771 134.175,251.559 134.338,251.348C134.338,251.295 134.392,251.189 134.501,251.136C134.555,250.977 134.555,250.925 134.664,250.872C134.664,250.818 134.718,250.712 134.826,250.607C134.826,250.607 134.826,250.554 134.881,250.448C134.881,250.448 134.935,250.395 134.935,250.289C134.935,250.236 134.99,250.236 134.99,250.131L134.99,249.548C135.044,249.866 135.044,249.813 135.044,249.813Z" style="fill:white;fill-rule:nonzero;"/>
            </g>
        </g>
        <g transform="matrix(2.07551,0,0,2.07551,-1340.9,-1735.4)">
            <g transform="matrix(29.1667,0,0,29.1667,1406.56,1870.66)">
                <path d="M0.391,0.007C0.531,0.007 0.621,-0.06 0.662,-0.193C0.673,-0.229 0.68,-0.266 0.687,-0.305L0.746,-0.641C0.747,-0.644 0.747,-0.648 0.747,-0.653C0.747,-0.688 0.719,-0.706 0.686,-0.706C0.655,-0.706 0.633,-0.689 0.628,-0.658L0.569,-0.324C0.548,-0.212 0.526,-0.103 0.387,-0.103C0.32,-0.103 0.258,-0.14 0.25,-0.211C0.249,-0.222 0.249,-0.229 0.249,-0.24C0.249,-0.261 0.251,-0.283 0.255,-0.305L0.314,-0.641C0.315,-0.646 0.316,-0.651 0.316,-0.654C0.316,-0.689 0.289,-0.706 0.257,-0.706C0.226,-0.706 0.201,-0.689 0.196,-0.658L0.137,-0.323C0.131,-0.294 0.128,-0.264 0.128,-0.233C0.128,-0.073 0.238,0.007 0.391,0.007Z" style="fill:rgb(229,115,0);fill-rule:nonzero;"/>
            </g>
            <g transform="matrix(29.1667,0,0,29.1667,1427.33,1870.66)">
                <path d="M0.371,-0.533C0.205,-0.533 0.14,-0.433 0.113,-0.284C0.108,-0.257 0.105,-0.231 0.105,-0.204C0.105,-0.073 0.195,-0.019 0.318,-0.019C0.355,-0.019 0.391,-0.025 0.428,-0.038C0.41,0.044 0.381,0.076 0.293,0.076C0.244,0.076 0.197,0.056 0.152,0.039C0.141,0.035 0.131,0.032 0.119,0.032C0.086,0.032 0.064,0.055 0.064,0.088C0.064,0.112 0.078,0.13 0.099,0.141C0.151,0.165 0.24,0.182 0.297,0.182C0.456,0.182 0.523,0.104 0.55,-0.048L0.592,-0.287C0.595,-0.303 0.597,-0.32 0.597,-0.337C0.597,-0.47 0.495,-0.533 0.371,-0.533ZM0.226,-0.221C0.226,-0.236 0.227,-0.252 0.23,-0.268C0.246,-0.353 0.271,-0.427 0.373,-0.427C0.434,-0.427 0.478,-0.396 0.478,-0.332C0.478,-0.323 0.477,-0.314 0.476,-0.305L0.447,-0.142C0.408,-0.131 0.369,-0.125 0.331,-0.125C0.267,-0.125 0.226,-0.154 0.226,-0.221Z" style="fill:rgb(229,115,0);fill-rule:nonzero;"/>
            </g>
            <g transform="matrix(29.1667,0,0,29.1667,1445.32,1870.66)">
                <path d="M0.351,-0.533C0.303,-0.533 0.255,-0.527 0.21,-0.514C0.185,-0.506 0.165,-0.49 0.165,-0.462C0.165,-0.427 0.189,-0.409 0.222,-0.409C0.229,-0.409 0.236,-0.41 0.243,-0.411C0.282,-0.42 0.317,-0.432 0.356,-0.432C0.424,-0.432 0.466,-0.411 0.467,-0.338C0.418,-0.349 0.367,-0.355 0.316,-0.355C0.193,-0.355 0.083,-0.312 0.083,-0.173C0.083,-0.044 0.203,0.007 0.315,0.007C0.468,0.007 0.543,-0.078 0.57,-0.222C0.577,-0.257 0.586,-0.291 0.586,-0.326C0.586,-0.47 0.483,-0.533 0.351,-0.533ZM0.316,-0.094C0.263,-0.094 0.201,-0.113 0.201,-0.177C0.201,-0.248 0.276,-0.257 0.331,-0.257C0.374,-0.257 0.415,-0.252 0.456,-0.245C0.443,-0.162 0.408,-0.094 0.316,-0.094Z" style="fill:rgb(229,115,0);fill-rule:nonzero;"/>
            </g>
            <g transform="matrix(29.1667,0,0,29.1667,1462.71,1870.66)">
                <path d="M0.495,0.004C0.526,0.004 0.55,-0.014 0.555,-0.045L0.598,-0.287C0.601,-0.306 0.602,-0.323 0.602,-0.34C0.602,-0.473 0.5,-0.533 0.378,-0.533C0.225,-0.533 0.152,-0.449 0.127,-0.304L0.084,-0.059C0.083,-0.056 0.083,-0.052 0.083,-0.047C0.083,-0.012 0.112,0.004 0.143,0.004C0.174,0.004 0.196,-0.016 0.201,-0.045L0.244,-0.287C0.257,-0.366 0.284,-0.427 0.374,-0.427C0.437,-0.427 0.483,-0.399 0.483,-0.332C0.483,-0.321 0.482,-0.311 0.48,-0.3L0.438,-0.059C0.437,-0.054 0.436,-0.05 0.436,-0.047C0.436,-0.012 0.463,0.004 0.495,0.004Z" style="fill:rgb(229,115,0);fill-rule:nonzero;"/>
            </g>
            <g transform="matrix(29.1667,0,0,29.1667,1480.85,1870.66)">
                <path d="M0.608,-0.737C0.577,-0.737 0.553,-0.719 0.548,-0.688L0.515,-0.5C0.468,-0.52 0.42,-0.533 0.369,-0.533C0.194,-0.533 0.134,-0.427 0.11,-0.271C0.105,-0.244 0.102,-0.221 0.102,-0.194C0.102,-0.061 0.205,0.007 0.33,0.007C0.513,0.007 0.561,-0.093 0.591,-0.254L0.665,-0.675C0.666,-0.678 0.666,-0.682 0.666,-0.687C0.666,-0.722 0.639,-0.737 0.608,-0.737ZM0.336,-0.099C0.271,-0.099 0.221,-0.126 0.221,-0.197C0.221,-0.216 0.223,-0.236 0.226,-0.255C0.242,-0.351 0.261,-0.427 0.376,-0.427C0.417,-0.427 0.458,-0.417 0.497,-0.402L0.474,-0.272C0.458,-0.183 0.446,-0.099 0.336,-0.099Z" style="fill:rgb(229,115,0);fill-rule:nonzero;"/>
            </g>
            <g transform="matrix(29.1667,0,0,29.1667,1498.96,1870.66)">
                <path d="M0.351,-0.533C0.303,-0.533 0.255,-0.527 0.21,-0.514C0.185,-0.506 0.165,-0.49 0.165,-0.462C0.165,-0.427 0.189,-0.409 0.222,-0.409C0.229,-0.409 0.236,-0.41 0.243,-0.411C0.282,-0.42 0.317,-0.432 0.356,-0.432C0.424,-0.432 0.466,-0.411 0.467,-0.338C0.418,-0.349 0.367,-0.355 0.316,-0.355C0.193,-0.355 0.083,-0.312 0.083,-0.173C0.083,-0.044 0.203,0.007 0.315,0.007C0.468,0.007 0.543,-0.078 0.57,-0.222C0.577,-0.257 0.586,-0.291 0.586,-0.326C0.586,-0.47 0.483,-0.533 0.351,-0.533ZM0.316,-0.094C0.263,-0.094 0.201,-0.113 0.201,-0.177C0.201,-0.248 0.276,-0.257 0.331,-0.257C0.374,-0.257 0.415,-0.252 0.456,-0.245C0.443,-0.162 0.408,-0.094 0.316,-0.094Z" style="fill:rgb(229,115,0);fill-rule:nonzero;"/>
            </g>
        </g>
    </g>
</svg>
