<?xml version="1.0" encoding="UTF-8"?>
<svg xmlns="http://www.w3.org/2000/svg" xmlns:xlink="http://www.w3.org/1999/xlink" width="205" height="64" viewBox="40 108 205 64" version="1.2">
<g id="surface1">
<path style=" stroke:none;fill-rule:nonzero;fill:rgb(93%,95%,95%);fill-opacity:1;" d="M 50.503906 160.011719 L 55.332031 160.011719 L 52.910156 152.96875 Z M 57.195312 165.417969 L 55.871094 161.605469 L 49.964844 161.605469 L 48.679688 165.417969 L 46.507812 165.417969 L 51.808594 151.0625 L 54.089844 151.0625 L 59.390625 165.417969 Z M 57.195312 165.417969 "/>
<path style=" stroke:none;fill-rule:nonzero;fill:rgb(93%,95%,95%);fill-opacity:1;" d="M 75.015625 151.0625 L 77.128906 151.0625 L 77.128906 160.175781 C 77.128906 161.972656 76.640625 163.355469 75.667969 164.320312 C 74.691406 165.285156 73.292969 165.769531 71.472656 165.769531 C 69.648438 165.769531 68.25 165.292969 67.277344 164.332031 C 66.304688 163.371094 65.816406 161.988281 65.816406 160.175781 L 65.816406 151.0625 L 67.929688 151.0625 L 67.929688 160.363281 C 67.929688 161.523438 68.230469 162.417969 68.839844 163.046875 C 69.449219 163.675781 70.324219 163.988281 71.472656 163.988281 C 72.617188 163.988281 73.496094 163.675781 74.101562 163.046875 C 74.710938 162.417969 75.015625 161.523438 75.015625 160.363281 Z M 75.015625 151.0625 "/>
<path style=" stroke:none;fill-rule:nonzero;fill:rgb(93%,95%,95%);fill-opacity:1;" d="M 88.855469 165.417969 L 88.855469 152.800781 L 84.277344 152.800781 L 84.277344 151.0625 L 95.546875 151.0625 L 95.546875 152.800781 L 90.96875 152.800781 L 90.96875 165.417969 Z M 88.855469 165.417969 "/>
<path style=" stroke:none;fill-rule:nonzero;fill:rgb(93%,95%,95%);fill-opacity:1;" d="M 103.914062 158.25 C 103.914062 160.128906 104.304688 161.554688 105.085938 162.527344 C 105.867188 163.503906 106.996094 163.988281 108.472656 163.988281 C 109.949219 163.988281 111.078125 163.5 111.851562 162.515625 C 112.625 161.539062 113.011719 160.113281 113.011719 158.25 C 113.011719 156.386719 112.625 154.964844 111.851562 153.992188 C 111.078125 153.019531 109.949219 152.53125 108.472656 152.53125 C 106.980469 152.53125 105.847656 153.019531 105.074219 153.992188 C 104.300781 154.964844 103.914062 156.386719 103.914062 158.25 M 101.738281 158.25 C 101.738281 156.71875 102 155.386719 102.527344 154.261719 C 103.050781 153.136719 103.820312 152.269531 104.835938 151.660156 C 105.851562 151.054688 107.0625 150.75 108.472656 150.75 C 110.558594 150.75 112.199219 151.417969 113.394531 152.75 C 114.585938 154.082031 115.1875 155.917969 115.1875 158.25 C 115.1875 159.785156 114.921875 161.113281 114.398438 162.238281 C 113.875 163.363281 113.105469 164.234375 112.097656 164.847656 C 111.089844 165.464844 109.882812 165.769531 108.472656 165.769531 C 107.105469 165.769531 105.917969 165.476562 104.910156 164.890625 C 103.902344 164.304688 103.121094 163.445312 102.570312 162.3125 C 102.015625 161.179688 101.738281 159.824219 101.738281 158.25 "/>
<path style=" stroke:none;fill-rule:nonzero;fill:rgb(93%,95%,95%);fill-opacity:1;" d="M 140.957031 163.886719 C 141.773438 163.886719 142.503906 163.808594 143.152344 163.65625 L 143.152344 159.453125 L 139.941406 159.453125 L 139.941406 157.816406 L 145.140625 157.816406 L 145.140625 164.652344 C 144.546875 164.984375 143.851562 165.234375 143.050781 165.410156 C 142.25 165.578125 141.414062 165.667969 140.542969 165.667969 C 138.277344 165.667969 136.558594 165.046875 135.386719 163.800781 C 134.210938 162.558594 133.625 160.734375 133.625 158.332031 C 133.625 155.902344 134.226562 154.046875 135.425781 152.769531 C 136.628906 151.492188 138.367188 150.855469 140.648438 150.855469 C 142.097656 150.855469 143.429688 151.136719 144.644531 151.703125 L 144.644531 153.359375 C 143.238281 152.878906 141.980469 152.636719 140.875 152.636719 C 139.121094 152.636719 137.835938 153.074219 137.023438 153.949219 C 136.207031 154.828125 135.800781 156.199219 135.800781 158.0625 L 135.800781 158.519531 C 135.800781 160.355469 136.21875 161.710938 137.050781 162.578125 C 137.886719 163.449219 139.191406 163.886719 140.957031 163.886719 "/>
<path style=" stroke:none;fill-rule:nonzero;fill:rgb(93%,95%,95%);fill-opacity:1;" d="M 156.019531 160.011719 L 160.847656 160.011719 L 158.421875 152.96875 Z M 162.710938 165.417969 L 161.382812 161.605469 L 155.480469 161.605469 L 154.195312 165.417969 L 152.019531 165.417969 L 157.324219 151.0625 L 159.605469 151.0625 L 164.90625 165.417969 Z M 162.710938 165.417969 "/>
<path style=" stroke:none;fill-rule:nonzero;fill:rgb(93%,95%,95%);fill-opacity:1;" d="M 174.085938 157.960938 L 177.007812 157.960938 C 177.890625 157.960938 178.5625 157.738281 179.027344 157.296875 C 179.488281 156.855469 179.71875 156.199219 179.71875 155.328125 C 179.71875 154.472656 179.5 153.828125 179.058594 153.390625 C 178.613281 152.957031 177.957031 152.738281 177.089844 152.738281 L 174.085938 152.738281 Z M 172.03125 165.417969 L 172.03125 151.0625 L 177.273438 151.0625 C 178.671875 151.0625 179.78125 151.445312 180.609375 152.210938 C 181.441406 152.976562 181.855469 154.007812 181.855469 155.308594 C 181.855469 156.261719 181.59375 157.085938 181.078125 157.785156 C 180.558594 158.480469 179.832031 158.988281 178.890625 159.308594 L 182.703125 165.417969 L 180.40625 165.417969 L 176.882812 159.636719 L 174.085938 159.636719 L 174.085938 165.417969 Z M 172.03125 165.417969 "/>
<path style=" stroke:none;fill-rule:nonzero;fill:rgb(93%,95%,95%);fill-opacity:1;" d="M 192.6875 160.011719 L 197.515625 160.011719 L 195.09375 152.96875 Z M 199.382812 165.417969 L 198.054688 161.605469 L 192.152344 161.605469 L 190.867188 165.417969 L 188.691406 165.417969 L 193.996094 151.0625 L 196.273438 151.0625 L 201.578125 165.417969 Z M 199.382812 165.417969 "/>
<path style=" stroke:none;fill-rule:nonzero;fill:rgb(93%,95%,95%);fill-opacity:1;" d="M 214.898438 163.886719 C 215.710938 163.886719 216.445312 163.808594 217.09375 163.65625 L 217.09375 159.453125 L 213.882812 159.453125 L 213.882812 157.816406 L 219.082031 157.816406 L 219.082031 164.652344 C 218.488281 164.984375 217.792969 165.234375 216.992188 165.410156 C 216.191406 165.578125 215.355469 165.667969 214.484375 165.667969 C 212.21875 165.667969 210.5 165.046875 209.324219 163.800781 C 208.152344 162.558594 207.566406 160.734375 207.566406 158.332031 C 207.566406 155.902344 208.164062 154.046875 209.367188 152.769531 C 210.566406 151.492188 212.308594 150.855469 214.585938 150.855469 C 216.039062 150.855469 217.371094 151.136719 218.585938 151.703125 L 218.585938 153.359375 C 217.175781 152.878906 215.917969 152.636719 214.816406 152.636719 C 213.0625 152.636719 211.777344 153.074219 210.960938 153.949219 C 210.148438 154.828125 209.738281 156.199219 209.738281 158.0625 L 209.738281 158.519531 C 209.738281 160.355469 210.15625 161.710938 210.992188 162.578125 C 211.828125 163.449219 213.128906 163.886719 214.898438 163.886719 "/>
<path style=" stroke:none;fill-rule:nonzero;fill:rgb(93%,95%,95%);fill-opacity:1;" d="M 227.496094 165.417969 L 227.496094 151.0625 L 236.421875 151.0625 L 236.421875 152.761719 L 229.605469 152.761719 L 229.605469 157.171875 L 235.324219 157.171875 L 235.324219 158.871094 L 229.605469 158.871094 L 229.605469 163.71875 L 236.421875 163.71875 L 236.421875 165.417969 Z M 227.496094 165.417969 "/>
<path style=" stroke:none;fill-rule:nonzero;fill:rgb(85.676575%,33.078003%,11.720276%);fill-opacity:1;" d="M 63.398438 135.355469 L 61.445312 140.910156 L 46.507812 140.910156 L 46.507812 115.671875 L 53.085938 115.671875 L 53.085938 135.355469 Z M 63.398438 135.355469 "/>
<path style=" stroke:none;fill-rule:nonzero;fill:rgb(85.676575%,33.078003%,11.720276%);fill-opacity:1;" d="M 112.042969 131.074219 L 108.792969 116.261719 L 102.214844 116.261719 L 99.027344 131.128906 L 95.820312 115.675781 L 88.59375 115.675781 L 95.585938 140.910156 L 102.304688 140.910156 L 105.382812 126.714844 L 108.574219 140.910156 L 115.324219 140.910156 L 122.277344 115.675781 L 115.191406 115.675781 Z M 112.042969 131.074219 "/>
<path style=" stroke:none;fill-rule:nonzero;fill:rgb(85.676575%,33.078003%,11.720276%);fill-opacity:1;" d="M 149.164062 140.910156 L 166.257812 140.910156 L 166.257812 135.496094 L 155.746094 135.496094 L 155.746094 130.707031 L 164.296875 130.707031 L 164.296875 125.292969 L 155.746094 125.292969 L 155.746094 121.09375 L 166.257812 121.09375 L 166.257812 115.675781 L 149.164062 115.675781 Z M 149.164062 140.910156 "/>
<path style=" stroke:none;fill-rule:nonzero;fill:rgb(85.676575%,33.078003%,11.720276%);fill-opacity:1;" d="M 180.378906 135.800781 L 177.039062 135.800781 L 177.039062 130.539062 L 180.136719 130.539062 C 182.234375 130.539062 183.167969 131.363281 183.167969 133.222656 C 183.167969 135.03125 182.332031 135.800781 180.378906 135.800781 M 177.039062 120.78125 L 179.589844 120.78125 C 181.230469 120.78125 181.929688 121.511719 181.929688 123.226562 C 181.929688 124.890625 181.148438 125.601562 179.3125 125.601562 L 177.039062 125.601562 Z M 186.109375 127.535156 C 186.652344 127.128906 187.101562 126.652344 187.453125 126.105469 C 188.066406 125.152344 188.375 124.011719 188.375 122.710938 C 188.375 120.621094 187.578125 118.898438 186.003906 117.59375 C 184.46875 116.320312 182.449219 115.675781 180 115.675781 L 170.730469 115.675781 L 170.730469 140.910156 L 180.480469 140.910156 C 183.222656 140.910156 185.453125 140.242188 187.105469 138.933594 C 188.8125 137.585938 189.679688 135.742188 189.679688 133.460938 C 189.679688 131.863281 189.242188 130.488281 188.382812 129.367188 C 187.800781 128.613281 187.039062 128 186.109375 127.535156 "/>
<path style=" stroke:none;fill-rule:nonzero;fill:rgb(85.676575%,33.078003%,11.720276%);fill-opacity:1;" d="M 235.554688 134.824219 C 233.214844 135.335938 231.382812 135.597656 230.109375 135.597656 C 227.96875 135.597656 226.378906 135.042969 225.382812 133.957031 C 224.371094 132.851562 223.855469 131.089844 223.855469 128.722656 L 223.855469 127.933594 C 223.855469 125.542969 224.386719 123.765625 225.429688 122.652344 C 226.464844 121.546875 228.085938 120.988281 230.25 120.988281 C 231.515625 120.988281 233.1875 121.214844 235.210938 121.65625 L 236.082031 121.847656 L 236.082031 116.402344 L 235.605469 116.234375 C 233.722656 115.566406 231.710938 115.230469 229.628906 115.230469 C 225.667969 115.230469 222.535156 116.402344 220.320312 118.714844 C 218.113281 121.015625 216.996094 124.28125 216.996094 128.414062 C 216.996094 132.59375 218.066406 135.828125 220.183594 138.027344 C 222.308594 140.234375 225.4375 141.355469 229.492188 141.355469 C 231.859375 141.355469 234.035156 140.980469 235.964844 140.242188 L 236.421875 140.066406 L 236.421875 134.632812 Z M 235.554688 134.824219 "/>
<path style=" stroke:none;fill-rule:nonzero;fill:rgb(85.676575%,33.078003%,11.720276%);fill-opacity:1;" d="M 146.304688 140.910156 L 139.328125 140.910156 L 134.171875 131.671875 L 131.945312 131.671875 L 131.945312 140.910156 L 125.570312 140.910156 L 125.570312 126.664062 L 134.800781 126.664062 C 136.800781 126.664062 137.695312 125.765625 137.695312 123.746094 C 137.695312 121.769531 136.820312 120.882812 134.875 120.882812 L 124.390625 120.882812 L 125.828125 115.671875 L 135.453125 115.671875 C 138.097656 115.671875 140.234375 116.398438 141.804688 117.820312 C 143.394531 119.261719 144.207031 121.230469 144.207031 123.671875 C 144.207031 125.1875 143.78125 126.574219 142.945312 127.789062 C 142.253906 128.792969 141.320312 129.625 140.164062 130.257812 Z M 146.304688 140.910156 "/>
<path style=" stroke:none;fill-rule:nonzero;fill:rgb(85.676575%,33.078003%,11.720276%);fill-opacity:1;" d="M 73.949219 115.675781 L 65.066406 140.910156 L 72.003906 140.910156 L 73.617188 135.484375 L 75.140625 130.34375 L 77.144531 123.585938 L 79.195312 130.34375 L 80.695312 135.484375 L 82.378906 140.910156 L 89.515625 140.910156 L 80.632812 115.675781 Z M 73.949219 115.675781 "/>
<path style=" stroke:none;fill-rule:nonzero;fill:rgb(85.676575%,33.078003%,11.720276%);fill-opacity:1;" d="M 200.203125 115.675781 L 191.320312 140.910156 L 198.257812 140.910156 L 199.871094 135.484375 L 201.394531 130.34375 L 203.398438 123.585938 L 205.449219 130.34375 L 206.949219 135.484375 L 208.632812 140.910156 L 215.769531 140.910156 L 206.882812 115.675781 Z M 200.203125 115.675781 "/>
</g>
</svg>
